<?xml version="1.0" encoding="UTF-8"?>
<svg xmlns="http://www.w3.org/2000/svg" xmlns:xlink="http://www.w3.org/1999/xlink" width="20px" height="20px" viewBox="0 0 20 20" version="1.1">
<g id="surface1">
<path style=" stroke:none;fill-rule:nonzero;fill:rgb(0%,0%,0%);fill-opacity:1;" d="M 10 0 L 9.449219 0.0234375 L 12.625 3.199219 L 13.75 2.082031 C 16.457031 3.390625 18.410156 6.035156 18.707031 9.167969 L 19.957031 9.167969 C 19.535156 4.035156 15.242188 0 10 0 M 10 3.332031 C 8.390625 3.332031 7.082031 4.640625 7.082031 6.25 C 7.082031 7.859375 8.390625 9.167969 10 9.167969 C 11.609375 9.167969 12.917969 7.859375 12.917969 6.25 C 12.917969 4.640625 11.609375 3.332031 10 3.332031 M 0.0429688 10.832031 C 0.464844 15.964844 4.757812 20 10 20 L 10.550781 19.976562 L 7.375 16.800781 L 6.25 17.917969 C 3.542969 16.617188 1.589844 13.964844 1.292969 10.832031 L 0.0429688 10.832031 M 10 10.832031 C 6.773438 10.832031 4.167969 12.140625 4.167969 13.75 L 4.167969 15 L 15.832031 15 L 15.832031 13.75 C 15.832031 12.140625 13.226562 10.832031 10 10.832031 Z M 10 10.832031 "/>
</g>
</svg>
