<?xml version="1.0" encoding="UTF-8"?>
<svg xmlns="http://www.w3.org/2000/svg" xmlns:xlink="http://www.w3.org/1999/xlink" width="20px" height="20px" viewBox="0 0 20 20" version="1.1">
<g id="surface1">
<path style=" stroke:none;fill-rule:nonzero;fill:rgb(0%,0%,0%);fill-opacity:1;" d="M 15.832031 17.5 L 6.667969 17.5 L 6.667969 5.832031 L 15.832031 5.832031 M 15.832031 4.167969 L 6.667969 4.167969 C 5.746094 4.167969 5 4.914062 5 5.832031 L 5 17.5 C 5 18.421875 5.746094 19.167969 6.667969 19.167969 L 15.832031 19.167969 C 16.753906 19.167969 17.5 18.421875 17.5 17.5 L 17.5 5.832031 C 17.5 4.914062 16.753906 4.167969 15.832031 4.167969 M 13.332031 0.832031 L 3.332031 0.832031 C 2.414062 0.832031 1.667969 1.578125 1.667969 2.5 L 1.667969 14.167969 L 3.332031 14.167969 L 3.332031 2.5 L 13.332031 2.5 Z M 13.332031 0.832031 "/>
</g>
</svg>
