<?xml version="1.0" encoding="UTF-8"?>
<svg xmlns="http://www.w3.org/2000/svg" xmlns:xlink="http://www.w3.org/1999/xlink" width="20px" height="20px" viewBox="0 0 20 20" version="1.1">
<g id="surface1">
<path style=" stroke:none;fill-rule:nonzero;fill:rgb(0%,0%,0%);fill-opacity:1;" d="M 18.777344 2.203125 L 16.820312 0.246094 C 16.492188 -0.0820312 15.960938 -0.0820312 15.636719 0.246094 C 15.308594 0.574219 15.308594 1.101562 15.636719 1.429688 L 17 2.796875 L 16.511719 3.28125 L 15.960938 2.726562 C 15.632812 2.402344 15.101562 2.402344 14.773438 2.726562 C 14.449219 3.054688 14.449219 3.585938 14.773438 3.914062 L 15.328125 4.46875 L 14.84375 4.953125 L 13.476562 3.589844 C 13.148438 3.261719 12.617188 3.261719 12.292969 3.589844 C 11.964844 3.914062 11.964844 4.445312 12.292969 4.773438 L 13.65625 6.140625 L 9.519531 10.277344 C 7.417969 8.746094 4.449219 8.929688 2.554688 10.824219 C 0.453125 12.925781 0.453125 16.328125 2.554688 18.429688 C 4.648438 20.523438 8.058594 20.523438 10.15625 18.425781 C 12.050781 16.53125 12.234375 13.5625 10.703125 11.464844 L 18.777344 3.386719 C 19.105469 3.0625 19.105469 2.53125 18.777344 2.203125 Z M 8.972656 17.242188 C 7.527344 18.6875 5.179688 18.6875 3.738281 17.242188 C 2.292969 15.796875 2.292969 13.457031 3.738281 12.007812 C 5.179688 10.566406 7.527344 10.566406 8.972656 12.007812 C 10.414062 13.453125 10.414062 15.800781 8.972656 17.242188 Z M 8.972656 17.242188 "/>
</g>
</svg>
