<?xml version="1.0" encoding="UTF-8"?>
<svg xmlns="http://www.w3.org/2000/svg" xmlns:xlink="http://www.w3.org/1999/xlink" width="20px" height="18px" viewBox="0 0 20 18" version="1.1">
<g id="surface1">
<path style=" stroke:none;fill-rule:nonzero;fill:rgb(0%,0%,0%);fill-opacity:1;" d="M 9.996094 0 C 10.316406 0 10.609375 0.183594 10.746094 0.476562 L 13.128906 5.441406 L 18.449219 6.238281 C 18.761719 6.28125 19.019531 6.503906 19.117188 6.808594 C 19.214844 7.117188 19.136719 7.445312 18.914062 7.671875 L 15.054688 11.546875 L 15.964844 17.015625 C 16.015625 17.332031 15.890625 17.652344 15.632812 17.84375 C 15.375 18.03125 15.03125 18.054688 14.753906 17.902344 L 9.996094 15.328125 L 5.242188 17.898438 C 4.960938 18.050781 4.621094 18.027344 4.363281 17.839844 C 4.109375 17.648438 3.976562 17.328125 4.027344 17.011719 L 4.9375 11.542969 L 1.078125 7.671875 C 0.855469 7.445312 0.777344 7.113281 0.875 6.808594 C 0.972656 6.507812 1.234375 6.285156 1.546875 6.238281 L 6.863281 5.441406 L 9.246094 0.476562 C 9.390625 0.183594 9.675781 0 9.996094 0 Z M 9.996094 2.777344 L 8.171875 6.582031 C 8.050781 6.832031 7.820312 7.007812 7.546875 7.046875 L 3.4375 7.660156 L 6.421875 10.652344 C 6.609375 10.84375 6.703125 11.121094 6.65625 11.390625 L 5.953125 15.597656 L 9.605469 13.625 C 9.851562 13.488281 10.144531 13.488281 10.390625 13.625 L 14.042969 15.597656 L 13.339844 11.394531 C 13.296875 11.125 13.382812 10.847656 13.578125 10.65625 L 16.558594 7.664062 L 12.453125 7.046875 C 12.179688 7.007812 11.945312 6.835938 11.824219 6.582031 Z M 9.996094 2.777344 "/>
</g>
</svg>
