<?xml version="1.0" encoding="UTF-8"?>
<svg xmlns="http://www.w3.org/2000/svg" xmlns:xlink="http://www.w3.org/1999/xlink" width="20px" height="23px" viewBox="0 0 20 22" version="1.1">
<g id="surface1">
<path style=" stroke:none;fill-rule:nonzero;fill:rgb(0%,0%,0%);fill-opacity:1;" d="M 7.613281 2.21875 L 6.761719 3.4375 L 13.238281 3.4375 L 12.386719 2.21875 C 12.320312 2.121094 12.210938 2.0625 12.089844 2.0625 L 7.90625 2.0625 C 7.785156 2.0625 7.675781 2.117188 7.605469 2.21875 Z M 14.175781 1.074219 L 15.8125 3.4375 L 18.929688 3.4375 C 19.523438 3.4375 20 3.898438 20 4.46875 C 20 5.039062 19.523438 5.5 18.929688 5.5 L 18.570312 5.5 L 18.570312 18.5625 C 18.570312 20.460938 16.972656 22 15 22 L 5 22 C 3.027344 22 1.429688 20.460938 1.429688 18.5625 L 1.429688 5.5 L 1.070312 5.5 C 0.476562 5.5 0 5.039062 0 4.46875 C 0 3.898438 0.476562 3.4375 1.070312 3.4375 L 4.1875 3.4375 L 5.824219 1.070312 C 6.289062 0.402344 7.070312 0 7.90625 0 L 12.089844 0 C 12.925781 0 13.707031 0.402344 14.167969 1.070312 Z M 3.570312 5.5 L 3.570312 18.5625 C 3.570312 19.324219 4.210938 19.9375 5 19.9375 L 15 19.9375 C 15.789062 19.9375 16.429688 19.324219 16.429688 18.5625 L 16.429688 5.5 Z M 7.144531 8.25 L 7.144531 17.1875 C 7.144531 17.566406 6.820312 17.875 6.429688 17.875 C 6.035156 17.875 5.714844 17.566406 5.714844 17.1875 L 5.714844 8.25 C 5.714844 7.871094 6.035156 7.5625 6.429688 7.5625 C 6.820312 7.5625 7.144531 7.871094 7.144531 8.25 Z M 10.714844 8.25 L 10.714844 17.1875 C 10.714844 17.566406 10.394531 17.875 10 17.875 C 9.605469 17.875 9.285156 17.566406 9.285156 17.1875 L 9.285156 8.25 C 9.285156 7.871094 9.605469 7.5625 10 7.5625 C 10.394531 7.5625 10.714844 7.871094 10.714844 8.25 Z M 14.285156 8.25 L 14.285156 17.1875 C 14.285156 17.566406 13.964844 17.875 13.570312 17.875 C 13.179688 17.875 12.855469 17.566406 12.855469 17.1875 L 12.855469 8.25 C 12.855469 7.871094 13.179688 7.5625 13.570312 7.5625 C 13.964844 7.5625 14.285156 7.871094 14.285156 8.25 Z M 14.285156 8.25 "/>
</g>
</svg>
