<?xml version="1.0"?>
<svg width="240" height="240" xmlns="http://www.w3.org/2000/svg" xmlns:svg="http://www.w3.org/2000/svg" xmlns:xlink="http://www.w3.org/1999/xlink">
 <!-- Created with SVG-edit - https://github.com/SVG-Edit/svgedit-->
 <defs>
  <symbol height="73.34" id="svg_3" viewBox="0 0 339.502 73.342" width="339.5" xmlns="http://www.w3.org/2000/svg">
   <g fill="#000" fill-rule="evenodd" font-size="9pt" id="svg_2" stroke="#000" stroke-linecap="round" stroke-width="0.25mm">
    <path d="m167.19,53.03l1.75,0.58l-5.81,18.36l-54.83,0l0,-1.8a28.86,28.86 0 0 0 2.4,-0.1q2.38,-0.2 3.92,-0.82a6.88,6.88 0 0 0 0.54,-0.25a8.2,8.2 0 0 0 1.26,-0.79q1.19,-0.93 1.6,-2.12a6.58,6.58 0 0 0 0.23,-0.95q0.29,-1.69 0.34,-5.06a96.72,96.72 0 0 0 0.01,-1.44l0,-42.04a81.79,81.79 0 0 0 -0.03,-2.36q-0.11,-3.88 -0.63,-5.23q-0.6,-1.6 -2.51,-2.59a8.63,8.63 0 0 0 -0.34,-0.17q-2.2,-1.03 -6.79,-1.12l0,-1.81l30.86,0l0,1.81a32.32,32.32 0 0 0 -2.29,0.12q-2.19,0.21 -3.59,0.72a6.95,6.95 0 0 0 -0.61,0.26a6.64,6.64 0 0 0 -1.3,0.79q-1.03,0.82 -1.44,1.96a6.31,6.31 0 0 0 -0.25,0.97q-0.38,2.07 -0.38,6.65l0,46.88q0,1.83 0.54,2.73a1.97,1.97 0 0 0 0.31,0.39a1.85,1.85 0 0 0 0.6,0.37q1.15,0.46 3.82,0.46l12.84,0a33.9,33.9 0 0 0 4.39,-0.26q2.24,-0.3 4.07,-0.92a13.28,13.28 0 0 0 3.6,-1.82q4.1,-3 7.72,-11.4zm-64.85,10.2l0,2.54q-4.86,6.13 -9.21,7.3a7.77,7.77 0 0 1 -2.02,0.27a6.32,6.32 0 0 1 -2.99,-0.66q-2.59,-1.37 -3.18,-5.56a18.63,18.63 0 0 1 -0.17,-2.18q-3.71,3.58 -7.21,5.63a25.59,25.59 0 0 1 -1.22,0.67a20.31,20.31 0 0 1 -3.7,1.49a15.16,15.16 0 0 1 -4.18,0.61a9.53,9.53 0 0 1 -7.07,-2.97a11.96,11.96 0 0 1 -0.33,-0.35a11.52,11.52 0 0 1 -3,-8.01a11.95,11.95 0 0 1 3.23,-8.17a18.82,18.82 0 0 1 2.9,-2.59q5.07,-3.74 15.85,-7.77a176.86,176.86 0 0 1 4.73,-1.68a192.15,192.15 0 0 0 -0.05,-3.01q-0.1,-4.53 -0.42,-6.49a6.5,6.5 0 0 0 -2.37,-4.15q-1.87,-1.52 -5.82,-1.58a21.53,21.53 0 0 0 -0.33,-0.01a10.04,10.04 0 0 0 -2.59,0.32a7.65,7.65 0 0 0 -2.93,1.49q-2.19,1.81 -2.19,4.88a11.63,11.63 0 0 0 0.01,0.55q0.01,0.3 0.04,0.64a22.07,22.07 0 0 0 0.04,0.42a19.82,19.82 0 0 1 0.04,0.74a15.66,15.66 0 0 1 0.01,0.53q0,3.57 -2.82,4.11a5.82,5.82 0 0 1 -1.08,0.09q-3.73,0 -4.26,-3.05a6.42,6.42 0 0 1 -0.09,-1.1a9.14,9.14 0 0 1 2.82,-6.62a14.36,14.36 0 0 1 2.02,-1.68a17.33,17.33 0 0 1 5.34,-2.45q2.31,-0.63 5.03,-0.83a35.33,35.33 0 0 1 2.56,-0.09a35.05,35.05 0 0 1 3.51,0.17q3.59,0.36 5.99,1.52q3.49,1.68 4.57,4.51a12.51,12.51 0 0 1 0.54,1.96q0.53,2.63 0.53,6.78l0,23.25a11.45,11.45 0 0 0 0.1,1.61q0.27,1.87 1.23,2.62a2.52,2.52 0 0 0 1.6,0.5q2.46,0 5.49,-3.06a24.68,24.68 0 0 0 1.05,-1.14zm136.58,-9.28l1.61,0.74a27.51,27.51 0 0 1 -7.13,13.18a18.89,18.89 0 0 1 -4.99,3.74a16.07,16.07 0 0 1 -7.37,1.73a20.09,20.09 0 0 1 -7.23,-1.26a17.97,17.97 0 0 1 -7.73,-5.8a25.81,25.81 0 0 1 -5.5,-14.42a33,33 0 0 1 -0.09,-2.49q0,-11.19 6.57,-18.02a21.54,21.54 0 0 1 15.63,-6.83a26.94,26.94 0 0 1 0.6,-0.01a21.93,21.93 0 0 1 5.56,0.67a17.09,17.09 0 0 1 5.79,2.73q4.67,3.39 4.67,7.44q0,1.71 -1.37,2.81q-1.37,1.1 -3.47,1.1q-3.52,0 -4.75,-2.97a8.32,8.32 0 0 1 -0.52,-1.96q-0.33,-2.32 -1.22,-3.85a6.23,6.23 0 0 0 -0.98,-1.28a5.13,5.13 0 0 0 -1.8,-1.11q-1.47,-0.55 -3.62,-0.55q-6.02,0 -9.45,4.68a14.05,14.05 0 0 0 -0.19,0.28a18.81,18.81 0 0 0 -2.96,7.12a26.22,26.22 0 0 0 -0.48,5.16a31.33,31.33 0 0 0 0.59,6.3q1.02,4.94 3.75,8.51a13.8,13.8 0 0 0 9.96,5.6a17.97,17.97 0 0 0 1.81,0.09a15.6,15.6 0 0 0 6.18,-1.15q4.01,-1.72 6.37,-5.97a21.71,21.71 0 0 0 1.76,-4.21zm42.57,0.88l1.57,0.83a28.15,28.15 0 0 1 -1.9,6.12a20.48,20.48 0 0 1 -4.87,6.85q-5.15,4.71 -11.89,4.71q-8.05,0 -13.81,-6.27q-5.1,-5.56 -5.69,-15.14a41.93,41.93 0 0 1 -0.08,-2.56q0,-10.55 5.08,-17.29a22.49,22.49 0 0 1 0.54,-0.68a18.11,18.11 0 0 1 13.23,-6.82a24.36,24.36 0 0 1 1.81,-0.07a19.78,19.78 0 0 1 5.74,0.8a15.53,15.53 0 0 1 7.03,4.4q4.81,5.2 4.81,13.31l-31.4,0a97.6,97.6 0 0 0 -0.02,0.57q-0.03,0.81 -0.03,1.28q0,7.47 4.54,14.07a16.55,16.55 0 0 0 3.73,3.95a13.51,13.51 0 0 0 8.28,2.64a13.07,13.07 0 0 0 6.67,-1.67q2.75,-1.59 4.66,-4.7a22.15,22.15 0 0 0 2,-4.33zm-107.86,-23.29l-0.53,-1.8l13.86,-5.23l1.71,0l0,36.38a31.88,31.88 0 0 0 0.07,2.21q0.25,3.56 1.37,4.95a3.07,3.07 0 0 0 0.05,0.07a4.56,4.56 0 0 0 1.47,1.11q1.5,0.75 3.97,0.94l0,1.8l-22.5,0l0,-1.8q3.71,-0.1 5.73,-1.54q2.03,-1.44 2.03,-7.74l0,-22.12a24.32,24.32 0 0 0 -0.08,-2.02q-0.16,-1.96 -0.67,-3.2a5,5 0 0 0 -0.35,-0.69a3.55,3.55 0 0 0 -2.13,-1.58q-0.77,-0.23 -1.75,-0.23a5.37,5.37 0 0 0 -2.25,0.49zm-88.86,31.16l0,-18.22a163.33,163.33 0 0 0 -4.96,2.13q-7.05,3.19 -9.79,5.47a10.53,10.53 0 0 0 -2.37,2.72a9,9 0 0 0 -1.24,4.67a8.27,8.27 0 0 0 2.17,5.76a7.01,7.01 0 0 0 5.09,2.39a8.71,8.71 0 0 0 0.35,0.01q2.54,0 5.23,-1.25q2.68,-1.24 5.52,-3.68zm-84.77,-10.06l0,-7.86l24.8,0l0,7.86l-24.8,0zm314.7,0l0,-7.86l24.8,0l0,7.86l-24.8,0zm-62.85,-12.7l20.85,0q-0.14,-5.71 -2.9,-8.79a8.93,8.93 0 0 0 -6.48,-3.06a11.36,11.36 0 0 0 -0.53,-0.01a9.79,9.79 0 0 0 -7.17,3.01a12.57,12.57 0 0 0 -0.2,0.21a12.43,12.43 0 0 0 -2.88,5.02a17.75,17.75 0 0 0 -0.69,3.62zm-63.78,-38.46a4.97,4.97 0 0 0 -3.6,-1.48a6.06,6.06 0 0 0 -0.06,0a4.98,4.98 0 0 0 -3.6,1.51a6.13,6.13 0 0 0 -0.05,0.05a4.92,4.92 0 0 0 -1.46,3.57a6.06,6.06 0 0 0 0,0.06a4.98,4.98 0 0 0 1.51,3.6a5.99,5.99 0 0 0 0.05,0.05a4.98,4.98 0 0 0 3.61,1.46a5.89,5.89 0 0 0 0.02,0a4.97,4.97 0 0 0 3.6,-1.49a4.99,4.99 0 0 0 1.11,-1.6a5.25,5.25 0 0 0 0.4,-2.08a6.05,6.05 0 0 0 0,-0.09a4.9,4.9 0 0 0 -1.51,-3.55a6.13,6.13 0 0 0 -0.02,-0.01z"/>
   </g>
  </symbol>
  <symbol height="240px" id="svg_6" version="1.1" viewBox="0 0 240 240" width="240px" xmlns="http://www.w3.org/2000/svg" xmlns:xlink="http://www.w3.org/1999/xlink">
   <g id="svg_5"/>
  </symbol>
 </defs>
 <g class="layer">
  <title>Layer 1</title>
  <use id="svg_4" transform="matrix(0.583694 0 0 0.583694 -60.4162 16.2718)" x="139.97" xlink:href="#svg_3" y="137.17"/>
  <use id="svg_7" transform="matrix(1 0 0 1 0 0) matrix(0.666667 0 0 0.666667 0 0)" x="0" xlink:href="#svg_6" y="0"/>
 </g>
</svg>