<svg xmlns="http://www.w3.org/2000/svg" id="master-artboard" width="290.9" height="80.8" x="0" y="0" style="enable-background:new 0 0 336 235.2" version="1.1"><path id="ee-background" d="M0 0h291v81H0z" style="fill:#fff;fill-opacity:0;pointer-events:none"/><defs><style id="ee-google-fonts">@import url(https://fonts.googleapis.com/css?family=Audiowide:400);</style></defs><g transform="matrix(.795 0 0 .795 11 8)"><path id="svgGroup" fill="#000" fill-rule="evenodd" stroke="#000" stroke-linecap="round" stroke-width=".9" d="m167 53 2 1-6 18h-55v-2a29 29 0 0 0 3 0l4-1a7 7 0 0 0 0 0 8 8 0 0 0 1-1l2-2a7 7 0 0 0 0-1l1-5a97 97 0 0 0 0-1V17a82 82 0 0 0 0-3l-1-5-3-3a9 9 0 0 0 0 0l-7-1V3h31v2a32 32 0 0 0-2 0l-4 1a7 7 0 0 0 0 0 7 7 0 0 0-2 1l-1 2a6 6 0 0 0 0 1l-1 7v46l1 3a2 2 0 0 0 0 1 2 2 0 0 0 1 0h16a34 34 0 0 0 5 0l4-1a13 13 0 0 0 3-2q5-3 8-11Zm-65 10v3q-5 6-9 7a8 8 0 0 1-2 0 6 6 0 0 1-3 0l-3-6a19 19 0 0 1 0-2l-7 6a26 26 0 0 1-2 0 20 20 0 0 1-3 2 15 15 0 0 1-5 0 10 10 0 0 1-7-3 12 12 0 0 1 0 0 12 12 0 0 1-3-8 12 12 0 0 1 3-8 19 19 0 0 1 3-3l16-8a177 177 0 0 1 5-1 192 192 0 0 0 0-3l-1-7a7 7 0 0 0-2-4l-6-1a22 22 0 0 0 0 0 10 10 0 0 0-3 0 8 8 0 0 0-3 1q-2 2-2 5a12 12 0 0 0 0 1q0 0 0 0a22 22 0 0 0 0 1 20 20 0 0 1 0 1 16 16 0 0 1 0 0q0 4-3 4a6 6 0 0 1-1 0q-3 0-4-3a6 6 0 0 1 0-1 9 9 0 0 1 3-6 14 14 0 0 1 2-2 17 17 0 0 1 5-3h5a35 35 0 0 1 3 0 35 35 0 0 1 3 0l6 1q4 2 5 5a13 13 0 0 1 0 2l1 6v24a11 11 0 0 0 0 1l1 3a3 3 0 0 0 2 0q2 0 5-3a25 25 0 0 0 1-1Zm137-9 2 1a28 28 0 0 1-8 13 19 19 0 0 1-5 4 16 16 0 0 1-7 1 20 20 0 0 1-7-1 18 18 0 0 1-8-6 26 26 0 0 1-5-14 33 33 0 0 1-1-3q0-11 7-18a22 22 0 0 1 16-6 27 27 0 0 1 0 0 22 22 0 0 1 6 0 17 17 0 0 1 6 3q4 3 4 7l-1 3-4 1q-3 0-4-3a8 8 0 0 1-1-2l-1-4a6 6 0 0 0-1-1 5 5 0 0 0-2-1h-3q-6 0-10 4a14 14 0 0 0 0 0 19 19 0 0 0-3 8 26 26 0 0 0-1 5 31 31 0 0 0 1 6q1 5 4 9a14 14 0 0 0 10 5 18 18 0 0 0 2 0 16 16 0 0 0 6-1q4-2 6-6a22 22 0 0 0 2-4Zm42 1 2 1a28 28 0 0 1-2 6 20 20 0 0 1-5 7q-5 4-12 4-8 0-13-6-6-5-6-15a42 42 0 0 1 0-3q0-10 5-17a22 22 0 0 1 0-1 18 18 0 0 1 14-6 24 24 0 0 1 1 0 20 20 0 0 1 6 0 16 16 0 0 1 7 5q5 5 5 13h-31a98 98 0 0 0 0 1v1q0 7 4 14a17 17 0 0 0 4 4 14 14 0 0 0 8 3 13 13 0 0 0 7-2q3-2 4-5a22 22 0 0 0 2-4ZM174 32l-1-2 14-5h2v36a32 32 0 0 0 0 2l1 5a3 3 0 0 0 0 0 5 5 0 0 0 2 1l4 1v2h-23v-2l6-1q2-2 2-8V39a24 24 0 0 0 0-2l-1-3a5 5 0 0 0 0-1 4 4 0 0 0-2-2h-2a5 5 0 0 0-2 1ZM85 63V44a163 163 0 0 0-5 3l-10 5a11 11 0 0 0-2 3 9 9 0 0 0-2 4 8 8 0 0 0 3 6 7 7 0 0 0 5 3 9 9 0 0 0 0 0q3 0 5-2l6-3ZM0 53v-8h25v8H0Zm315 0v-8h25v8h-25Zm-63-13h21q0-6-3-9a9 9 0 0 0-7-3 11 11 0 0 0 0 0 10 10 0 0 0-7 3 13 13 0 0 0-1 0 12 12 0 0 0-2 5 18 18 0 0 0-1 4ZM188 1a5 5 0 0 0-4-1 6 6 0 0 0 0 0 5 5 0 0 0-3 2 6 6 0 0 0 0 0 5 5 0 0 0-2 3 6 6 0 0 0 0 0 5 5 0 0 0 2 4 6 6 0 0 0 0 0 5 5 0 0 0 3 1 6 6 0 0 0 0 0 5 5 0 0 0 4-1 5 5 0 0 0 1-2 5 5 0 0 0 1-2 6 6 0 0 0 0 0 5 5 0 0 0-2-4 6 6 0 0 0 0 0Z" font-size="12" style="stroke:#000;stroke-width:.25mm;fill:#000" vector-effect="non-scaling-stroke"/></g></svg>