<?xml version="1.0"?>
<svg width="456" height="456" xmlns="http://www.w3.org/2000/svg" xmlns:svg="http://www.w3.org/2000/svg" xmlns:xlink="http://www.w3.org/1999/xlink" clip-rule="evenodd" fill-rule="evenodd" stroke-linejoin="round" version="1.1" xml:space="preserve">
 <g class="layer">
  <title>Layer 1</title>
  <use id="svg_11" transform="matrix(1.18123 0 0 1.18123 -294.986 -292.21)" x="299.81" xlink:href="#svg_10" y="396.79"/>
 </g>
 <defs>
  <symbol enable-background="new 0 0 336 235.2" height="80.8" id="svg_10" version="1.1" width="290.9" x="0" xmlns="http://www.w3.org/2000/svg" y="0">
   <path d="m0,0l291,0l0,81l-291,0l0,-81z" fill="#fff" fill-opacity="0" id="svg_9"/>
   <defs>
    <style id="svg_8">@import url(https://fonts.googleapis.com/css?family=Audiowide:400);</style>
   </defs>
   <g transform="matrix(.795 0 0 .795 11 8)">
    <path d="m167,53l2,1l-6,18l-55,0l0,-2a29,29 0 0 0 3,0l4,-1a7,7 0 0 0 0,0a8,8 0 0 0 1,-1l2,-2a7,7 0 0 0 0,-1l1,-5a97,97 0 0 0 0,-1l0,-42a82,82 0 0 0 0,-3l-1,-5l-3,-3a9,9 0 0 0 0,0l-7,-1l0,-2l31,0l0,2a32,32 0 0 0 -2,0l-4,1a7,7 0 0 0 0,0a7,7 0 0 0 -2,1l-1,2a6,6 0 0 0 0,1l-1,7l0,46l1,3a2,2 0 0 0 0,1a2,2 0 0 0 1,0l16,0a34,34 0 0 0 5,0l4,-1a13,13 0 0 0 3,-2q5,-3 8,-11zm-65,10l0,3q-5,6 -9,7a8,8 0 0 1 -2,0a6,6 0 0 1 -3,0l-3,-6a19,19 0 0 1 0,-2l-7,6a26,26 0 0 1 -2,0a20,20 0 0 1 -3,2a15,15 0 0 1 -5,0a10,10 0 0 1 -7,-3a12,12 0 0 1 0,0a12,12 0 0 1 -3,-8a12,12 0 0 1 3,-8a19,19 0 0 1 3,-3l16,-8a177,177 0 0 1 5,-1a192,192 0 0 0 0,-3l-1,-7a7,7 0 0 0 -2,-4l-6,-1a22,22 0 0 0 0,0a10,10 0 0 0 -3,0a8,8 0 0 0 -3,1q-2,2 -2,5a12,12 0 0 0 0,1q0,0 0,0a22,22 0 0 0 0,1a20,20 0 0 1 0,1a16,16 0 0 1 0,0q0,4 -3,4a6,6 0 0 1 -1,0q-3,0 -4,-3a6,6 0 0 1 0,-1a9,9 0 0 1 3,-6a14,14 0 0 1 2,-2a17,17 0 0 1 5,-3l5,0a35,35 0 0 1 3,0a35,35 0 0 1 3,0l6,1q4,2 5,5a13,13 0 0 1 0,2l1,6l0,24a11,11 0 0 0 0,1l1,3a3,3 0 0 0 2,0q2,0 5,-3a25,25 0 0 0 1,-1zm137,-9l2,1a28,28 0 0 1 -8,13a19,19 0 0 1 -5,4a16,16 0 0 1 -7,1a20,20 0 0 1 -7,-1a18,18 0 0 1 -8,-6a26,26 0 0 1 -5,-14a33,33 0 0 1 -1,-3q0,-11 7,-18a22,22 0 0 1 16,-6a27,27 0 0 1 0,0a22,22 0 0 1 6,0a17,17 0 0 1 6,3q4,3 4,7l-1,3l-4,1q-3,0 -4,-3a8,8 0 0 1 -1,-2l-1,-4a6,6 0 0 0 -1,-1a5,5 0 0 0 -2,-1l-3,0q-6,0 -10,4a14,14 0 0 0 0,0a19,19 0 0 0 -3,8a26,26 0 0 0 -1,5a31,31 0 0 0 1,6q1,5 4,9a14,14 0 0 0 10,5a18,18 0 0 0 2,0a16,16 0 0 0 6,-1q4,-2 6,-6a22,22 0 0 0 2,-4zm42,1l2,1a28,28 0 0 1 -2,6a20,20 0 0 1 -5,7q-5,4 -12,4q-8,0 -13,-6q-6,-5 -6,-15a42,42 0 0 1 0,-3q0,-10 5,-17a22,22 0 0 1 0,-1a18,18 0 0 1 14,-6a24,24 0 0 1 1,0a20,20 0 0 1 6,0a16,16 0 0 1 7,5q5,5 5,13l-31,0a98,98 0 0 0 0,1l0,1q0,7 4,14a17,17 0 0 0 4,4a14,14 0 0 0 8,3a13,13 0 0 0 7,-2q3,-2 4,-5a22,22 0 0 0 2,-4zm-107,-23l-1,-2l14,-5l2,0l0,36a32,32 0 0 0 0,2l1,5a3,3 0 0 0 0,0a5,5 0 0 0 2,1l4,1l0,2l-23,0l0,-2l6,-1q2,-2 2,-8l0,-22a24,24 0 0 0 0,-2l-1,-3a5,5 0 0 0 0,-1a4,4 0 0 0 -2,-2l-2,0a5,5 0 0 0 -2,1zm-89,31l0,-19a163,163 0 0 0 -5,3l-10,5a11,11 0 0 0 -2,3a9,9 0 0 0 -2,4a8,8 0 0 0 3,6a7,7 0 0 0 5,3a9,9 0 0 0 0,0q3,0 5,-2l6,-3zm-85,-10l0,-8l25,0l0,8l-25,0zm315,0l0,-8l25,0l0,8l-25,0zm-63,-13l21,0q0,-6 -3,-9a9,9 0 0 0 -7,-3a11,11 0 0 0 0,0a10,10 0 0 0 -7,3a13,13 0 0 0 -1,0a12,12 0 0 0 -2,5a18,18 0 0 0 -1,4zm-64,-39a5,5 0 0 0 -4,-1a6,6 0 0 0 0,0a5,5 0 0 0 -3,2a6,6 0 0 0 0,0a5,5 0 0 0 -2,3a6,6 0 0 0 0,0a5,5 0 0 0 2,4a6,6 0 0 0 0,0a5,5 0 0 0 3,1a6,6 0 0 0 0,0a5,5 0 0 0 4,-1a5,5 0 0 0 1,-2a5,5 0 0 0 1,-2a6,6 0 0 0 0,0a5,5 0 0 0 -2,-4a6,6 0 0 0 0,0z" fill="#000" fill-rule="evenodd" id="svg_7" stroke="#000" stroke-linecap="round" stroke-width=".25mm"/>
   </g>
  </symbol>
 </defs>
</svg>